<svg xmlns="http://www.w3.org/2000/svg" version="1.1"  width="60" height="60" x="0" y="0" viewBox="0 0 4335 4335" style="enable-background:new 0 0 512 512" xml:space="preserve" fill-rule="evenodd" class=""><g><path d="M2956 392c-51 0-77-62-41-99 387-386 1015-386 1402 0 53 54-28 136-82 82-341-341-897-341-1238 0-11 11-26 17-41 17zM2034 22c25-29 71-27 93 3 376 436 460 766 402 986-178 678-1614 301-495-989zm381 959c47-179-25-454-336-829-899 1084 207 1318 336 829zM342 3911V2008H59c-44 0-72-48-50-86l173-308c11-18 30-29 51-29h3869c21 0 40 11 50 29l174 308c22 38-6 86-50 86h-283v1903c72 0 167-17 167 58v307c0 32-26 58-58 58H233c-32 0-58-26-58-58v-307c0-75 95-58 167-58zm3536 0V2008H457v1903h316V2828c-38 0-72-13-72-57v-191c0-31 26-57 58-57h1059c32 0 58 26 58 57v191c0 43-34 57-72 57v1083zm-2990 0h801V2828H888zm-598 308h3755v-193H290zM158 1892h4019l-108-192H266zm658 821h944v-75H816zm748 775c-76 0-57-99-57-179 0-76 115-76 115 0 0 80 18 179-58 179zm2012 63H2283c-32 0-58-26-58-57V2425c0-32 26-58 58-58h1293c32 0 58 26 58 58v1069c0 31-26 57-58 57zm-589-115h532v-419h-532zm532-534v-419h-532v419zm-1178 534h531v-419h-531zm531-534v-419h-531v419zM240 1455c-39 0-67-39-55-77l166-484H59c-48 0-75-57-44-95L651 24c41-49 120-5 99 56L584 563h293c48 0 75 56 44 94l-636 776c-12 14-28 22-45 22zm-59-677h250c40 0 68 39 55 77l-88 259 357-436H503c-40 0-68-39-55-77l88-255zm3615 93c-15 0-29-5-41-17-76-77-202-77-279 0-53 54-135-27-81-81 201-201 539-16 442 81-11 12-26 17-41 17zm-601-240c-51 0-77-62-41-99 256-255 668-255 923 0 54 54-28 136-81 82-210-210-550-210-760 0-11 11-26 17-41 17z" fill="#ffffff" opacity="1" data-original="#ffffff" class=""></path></g></svg>