<svg xmlns="http://www.w3.org/2000/svg" version="1.1"  width="60" height="60" x="0" y="0" viewBox="0 0 512 512" style="enable-background:new 0 0 512 512" xml:space="preserve" class=""><g><path d="M120.316 203v70.374M436.702 389.283V124.79c0-13.807-11.193-25-25-25H145.316c-13.807 0-25 11.193-25 25V168M231.428 480.37h180.275c13.807 0 25-11.193 25-25v-66.087H379M344 389.283h-80.302" style="stroke-width:15;stroke-linecap:round;stroke-linejoin:round;stroke-miterlimit:10;" fill="none" stroke="#ffffff" stroke-width="15" stroke-linecap="round" stroke-linejoin="round" stroke-miterlimit="10" data-original="#ffffff" class=""></path><path d="M231.023 450.37h170.679a5 5 0 0 0 5-5v-21.087a5 5 0 0 0-5-5H241.749M263.769 339.734c4.787.859 9.706 1.339 14.741 1.339 45.939 0 83.18-37.241 83.18-83.18V231.18" style="stroke-width:15;stroke-linecap:round;stroke-linejoin:round;stroke-miterlimit:10;" fill="none" stroke="#ffffff" stroke-width="15" stroke-linecap="round" stroke-linejoin="round" stroke-miterlimit="10" data-original="#ffffff" class=""></path><path d="M258.932 312.018a83.21 83.21 0 0 0 19.577 2.343c45.939 0 83.18-37.241 83.18-83.18S324.449 148 278.509 148c-30.026 0-56.317 15.923-70.941 39.773M278.509 185v60M278.509 271.416v5.945M119 443.167H93.105c-5.523 0-10 4.477-10 10V494.5c0 5.523 4.477 10 10 10h128.322c5.523 0 10-4.477 10-10v-41.333c0-5.523-4.477-10-10-10H154" style="stroke-width:15;stroke-linecap:round;stroke-linejoin:round;stroke-miterlimit:10;" fill="none" stroke="#ffffff" stroke-width="15" stroke-linecap="round" stroke-linejoin="round" stroke-miterlimit="10" data-original="#ffffff" class=""></path><path d="m217.864 443.167 39.25-39.25a22.72 22.72 0 0 0 6.655-16.066V326a22.72 22.72 0 0 0-6.655-16.066l-7.701-7.701a22.72 22.72 0 0 0-16.066-6.655h-9.727v-89.452c0-10.24-8.301-18.54-18.54-18.54h0c-10.24 0-18.54 8.301-18.54 18.54v82.444c0-10.239-8.301-18.54-18.54-18.54h0c-10.24 0-18.54 8.301-18.54 18.54 0-10.239-8.301-18.54-18.54-18.54s-18.54 8.301-18.54 18.54c0-10.239-8.301-18.54-18.54-18.54h0c-10.239 0-18.54 8.301-18.54 18.54v112.603c0 20.127 13.683 37.042 32.25 41.993M233.933 68.162V7.5h24.971c4.903 0 8.878 4.133 8.878 9.232V28.6c0 5.098-3.975 9.232-8.878 9.232h-24.971M418.037 68.162V7.5M436.702 7.5h-37.33M288.148 22.506v30.65c0 8.287 6.718 15.006 15.006 15.006h5.187c8.287 0 15.006-6.718 15.006-15.006v-30.65c0-8.287-6.718-15.006-15.006-15.006h-5.187c-8.287 0-15.006 6.718-15.006 15.006zM120.316 68.162V7.5h25.967a9.232 9.232 0 0 1 9.232 9.232V28.6a9.232 9.232 0 0 1-9.232 9.232h-25.967M138.637 41.756l16.878 26.406M344.313 68.162V7.5h25.967a9.232 9.232 0 0 1 9.232 9.232V28.6a9.232 9.232 0 0 1-9.232 9.232h-25.967M362.634 41.756l16.878 26.406M211.257 7.5h-35.198v60.662h35.198M176.659 37.831h34.598M223.62 340.507v-134.38" style="stroke-width:15;stroke-linecap:round;stroke-linejoin:round;stroke-miterlimit:10;" fill="none" stroke="#ffffff" stroke-width="15" stroke-linecap="round" stroke-linejoin="round" stroke-miterlimit="10" data-original="#ffffff" class=""></path></g></svg>