<svg width="48" height="48" viewBox="0 0 48 48" fill="none" xmlns="http://www.w3.org/2000/svg">
  <!-- Fire Flame Emergency Icon -->
  <path d="M24 6C24 6 18 12 18 18C18 21.314 20.686 24 24 24C24 24 22 20 24 18C26 16 28 14 30 12C32 10 32 8 32 8C32 8 36 14 36 20C36 26.627 30.627 32 24 32C17.373 32 12 26.627 12 20C12 14 18 8 24 6Z" fill="#FF9500"/>
  <path d="M24 18C24 18 22 20 22 22C22 23.105 22.895 24 24 24C25.105 24 26 23.105 26 22C26 20.5 25 19 24 18Z" fill="#FFD60A"/>
  <circle cx="24" cy="36" r="8" fill="#FF9500" opacity="0.3"/>
</svg>

