<svg xmlns="http://www.w3.org/2000/svg" version="1.1" width="60" height="60" x="0" y="0" viewBox="0 0 24 24" style="enable-background:new 0 0 512 512" xml:space="preserve" class=""><g><g fill-rule="evenodd"><path d="M.5 13A1.5 1.5 0 0 1 2 11.5h20a1.5 1.5 0 0 1 1.5 1.5v5a5.5 5.5 0 0 1-5.5 5.5H6A5.5 5.5 0 0 1 .5 18zm1.5-.5a.5.5 0 0 0-.5.5v5A4.5 4.5 0 0 0 6 22.5h12a4.5 4.5 0 0 0 4.5-4.5v-5a.5.5 0 0 0-.5-.5z" fill="#ffffff" opacity="1" data-original="#ffffff" class=""></path><path d="M7.89.797a1.5 1.5 0 0 1 1.859 1.048l2.733 10.023A.5.5 0 0 1 12 12.5H4a.5.5 0 0 1-.488-.391l-1.796-8.08A1.5 1.5 0 0 1 2.768 2.26L7.89.797zm.894 1.311a.5.5 0 0 0-.62-.35l-5.12 1.464a.5.5 0 0 0-.352.59l1.71 7.688h6.943zM18.263 5.674a.5.5 0 0 0-.463.022l-.731.426a1.5 1.5 0 0 1-1.3.102l-.073-.028a.5.5 0 0 0-.662.603l1.343 4.7h3.246l1.396-4.887a.33.33 0 0 0-.457-.39 1.33 1.33 0 0 1-1.124 0zm-.967-.842a1.5 1.5 0 0 1 1.39-.064l1.174.548a.33.33 0 0 0 .28 0c1.033-.482 2.154.475 1.84 1.57l-1.5 5.251a.5.5 0 0 1-.48.363h-4a.5.5 0 0 1-.48-.363l-1.447-5.063c-.341-1.192.83-2.26 1.986-1.81l.073.028a.5.5 0 0 0 .433-.034z" fill="#ffffff" opacity="1" data-original="#ffffff" class=""></path><path d="M15.5 2a1.5 1.5 0 0 1 3 0v3a.5.5 0 0 1-1 0V2a.5.5 0 0 0-1 0v1a.5.5 0 0 1-1 0zM7.485 3.379a.5.5 0 0 1-.364.606l-2 .5a.5.5 0 0 1-.242-.97l2-.5a.5.5 0 0 1 .606.364zM12 14.5a1 1 0 0 0-1 1 .5.5 0 0 1-1 0 2 2 0 1 1 2.5 1.937V19a.5.5 0 0 1-1 0v-2a.5.5 0 0 1 .5-.5 1 1 0 1 0 0-2zM12 20a.5.5 0 0 1 .5.5v.5a.5.5 0 0 1-1 0v-.5a.5.5 0 0 1 .5-.5zM4 13.5a.5.5 0 0 1 .5.5v5a.5.5 0 0 1-1 0v-5a.5.5 0 0 1 .5-.5zM20 13.5a.5.5 0 0 1 .5.5v5a.5.5 0 0 1-1 0v-5a.5.5 0 0 1 .5-.5z" fill="#ffffff" opacity="1" data-original="#ffffff" class=""></path></g></g></svg>