<svg xmlns="http://www.w3.org/2000/svg" version="1.1"  width="60" height="60" x="0" y="0" viewBox="0 0 74 74" style="enable-background:new 0 0 512 512" xml:space="preserve" class=""><g><path d="M51.087 64.082a1 1 0 0 1-1-1V9.96L37.413 4.643 26.77 8.83v54.252a1 1 0 0 1-2 0V8.148a1 1 0 0 1 .634-.931l11.655-4.585a1 1 0 0 1 .753.008l13.662 5.733a1 1 0 0 1 .613.922v53.787a1 1 0 0 1-1 1z" fill="#ffffff" opacity="1" data-original="#ffffff" class=""></path><path d="M37.425 64.082a1 1 0 0 1-1-1V3.563a1 1 0 0 1 2 0v59.519a1 1 0 0 1-1 1zM67.232 64.082a1 1 0 0 1-1-1v-31.43l-9.778-5.689h-5.367a1 1 0 0 1 0-2h5.637a1 1 0 0 1 .5.136l10.509 6.114a1 1 0 0 1 .5.864v32a1 1 0 0 1-1.001 1.005z" fill="#ffffff" opacity="1" data-original="#ffffff" class=""></path><path d="M56.724 64.082a1 1 0 0 1-1-1V24.963a1 1 0 0 1 2 0v38.119a1 1 0 0 1-1 1zM5.229 64.082a1 1 0 0 1-1-1V31.937a1 1 0 0 1 1-1H25.77a1 1 0 0 1 0 2H6.229v30.145a1 1 0 0 1-1 1z" fill="#fffff" opacity="1" data-original="#ffffff" class=""></path><path d="M10.734 36.778H8.609a1 1 0 0 1 0-2h2.125a1 1 0 0 1 0 2zM16.563 36.778h-2.126a1 1 0 0 1 0-2h2.126a1 1 0 0 1 0 2zM22.39 36.778h-2.125a1 1 0 0 1 0-2h2.125a1 1 0 1 1 0 2zM10.734 41.471H8.609a1 1 0 0 1 0-2h2.125a1 1 0 0 1 0 2zM16.563 41.471h-2.126a1 1 0 0 1 0-2h2.126a1 1 0 0 1 0 2zM22.39 41.471h-2.125a1 1 0 1 1 0-2h2.125a1 1 0 0 1 0 2zM10.734 46.163H8.609a1 1 0 0 1 0-2h2.125a1 1 0 0 1 0 2zM16.563 46.163h-2.126a1 1 0 0 1 0-2h2.126a1 1 0 0 1 0 2zM22.39 46.163h-2.125a1 1 0 0 1 0-2h2.125a1 1 0 1 1 0 2zM10.734 50.856H8.609a1 1 0 0 1 0-2h2.125a1 1 0 0 1 0 2zM16.563 50.856h-2.126a1 1 0 0 1 0-2h2.126a1 1 0 0 1 0 2zM22.39 50.856h-2.125a1 1 0 0 1 0-2h2.125a1 1 0 1 1 0 2zM10.734 55.549H8.609a1 1 0 0 1 0-2h2.125a1 1 0 1 1 0 2zM16.563 55.549h-2.126a1 1 0 1 1 0-2h2.126a1 1 0 1 1 0 2zM22.39 55.549h-2.125a1 1 0 1 1 0-2h2.125a1 1 0 0 1 0 2zM10.734 60.242H8.609a1 1 0 0 1 0-2h2.125a1 1 0 0 1 0 2zM16.563 60.242h-2.126a1 1 0 0 1 0-2h2.126a1 1 0 0 1 0 2zM22.39 60.242h-2.125a1 1 0 0 1 0-2h2.125a1 1 0 1 1 0 2zM33.9 13.352a1 1 0 0 1-1-1v-1.887a1 1 0 0 1 2 0v1.887a1 1 0 0 1-1 1zM29.34 14.515a1 1 0 0 1-1-1v-1.887a1 1 0 0 1 2 0v1.887a1 1 0 0 1-1 1zM33.9 20.874a1 1 0 0 1-1-1v-1.887a1 1 0 0 1 2 0v1.887a1 1 0 0 1-1 1zM29.34 22.037a1 1 0 0 1-1-1V19.15a1 1 0 1 1 2 0v1.887a1 1 0 0 1-1 1zM33.9 28.4a1 1 0 0 1-1-1v-1.891a1 1 0 1 1 2 0V27.4a1 1 0 0 1-1 1zM29.34 29.559a1 1 0 0 1-1-1v-1.887a1 1 0 0 1 2 0v1.887a1 1 0 0 1-1 1zM33.9 35.917a1 1 0 0 1-1-1V33.03a1 1 0 0 1 2 0v1.887a1 1 0 0 1-1 1zM29.34 37.08a1 1 0 0 1-1-1v-1.887a1 1 0 0 1 2 0v1.887a1 1 0 0 1-1 1zM33.9 43.439a1 1 0 0 1-1-1v-1.887a1 1 0 0 1 2 0v1.887a1 1 0 0 1-1 1zM29.34 44.6a1 1 0 0 1-1-1v-1.885a1 1 0 0 1 2 0V43.6a1 1 0 0 1-1 1zM33.9 50.961a1 1 0 0 1-1-1v-1.887a1 1 0 0 1 2 0v1.887a1 1 0 0 1-1 1zM29.34 52.124a1 1 0 0 1-1-1v-1.887a1 1 0 0 1 2 0v1.887a1 1 0 0 1-1 1zM33.9 58.482a1 1 0 0 1-1-1V55.6a1 1 0 0 1 2 0v1.887a1 1 0 0 1-1 .995zM29.34 59.646a1 1 0 0 1-1-1v-1.888a1 1 0 0 1 2 0v1.887a1 1 0 0 1-1 1.001zM40.8 12.4a1 1 0 0 1-1-1V9.515a1 1 0 0 1 2 0V11.4a1 1 0 0 1-1 1zM44.177 13.675a1 1 0 0 1-1-1v-1.886a1 1 0 1 1 2 0v1.887a1 1 0 0 1-1 .999zM47.552 14.949a1 1 0 0 1-1-1v-1.886a1 1 0 0 1 2 0v1.887a1 1 0 0 1-1 .999zM40.8 19.9a1 1 0 0 1-1-1v-1.89a1 1 0 0 1 2 0v1.89a1 1 0 0 1-1 1zM44.177 21.17a1 1 0 0 1-1-1v-1.886a1 1 0 0 1 2 0v1.886a1 1 0 0 1-1 1zM47.552 22.444a1 1 0 0 1-1-1v-1.886a1 1 0 0 1 2 0v1.887a1 1 0 0 1-1 .999zM40.8 27.392a1 1 0 0 1-1-1V24.5a1 1 0 1 1 2 0v1.887a1 1 0 0 1-1 1.005zM44.177 28.666a1 1 0 0 1-1-1v-1.887a1 1 0 1 1 2 0v1.887a1 1 0 0 1-1 1zM47.552 29.939a1 1 0 0 1-1-1v-1.886a1 1 0 0 1 2 0v1.887a1 1 0 0 1-1 .999zM40.8 34.887a1 1 0 0 1-1-1V32a1 1 0 0 1 2 0v1.887a1 1 0 0 1-1 1zM44.177 36.161a1 1 0 0 1-1-1v-1.887a1 1 0 0 1 2 0v1.887a1 1 0 0 1-1 1zM47.552 37.435a1 1 0 0 1-1-1v-1.887a1 1 0 0 1 2 0v1.887a1 1 0 0 1-1 1zM40.8 42.382a1 1 0 0 1-1-1V39.5a1 1 0 0 1 2 0v1.887a1 1 0 0 1-1 .995zM44.177 43.656a1 1 0 0 1-1-1v-1.887a1 1 0 0 1 2 0v1.887a1 1 0 0 1-1 1zM47.552 44.93a1 1 0 0 1-1-1v-1.887a1 1 0 0 1 2 0v1.887a1 1 0 0 1-1 1zM40.8 49.877a1 1 0 0 1-1-1V46.99a1 1 0 0 1 2 0v1.887a1 1 0 0 1-1 1zM44.177 51.151a1 1 0 0 1-1-1v-1.887a1 1 0 0 1 2 0v1.887a1 1 0 0 1-1 1zM47.552 52.425a1 1 0 0 1-1-1v-1.887a1 1 0 0 1 2 0v1.887a1 1 0 0 1-1 1zM40.8 57.372a1 1 0 0 1-1-1v-1.887a1 1 0 0 1 2 0v1.887a1 1 0 0 1-1 1zM44.177 58.646a1 1 0 0 1-1-1v-1.887a1 1 0 0 1 2 0v1.887a1 1 0 0 1-1 1zM47.552 59.92a1 1 0 0 1-1-1v-1.887a1 1 0 0 1 2 0v1.887a1 1 0 0 1-1 1zM60.2 33.65a1 1 0 0 1-1-1v-1.011a1 1 0 0 1 2 0v1.011a1 1 0 0 1-1 1zM63.57 35.768a1 1 0 0 1-1-1v-1.011a1 1 0 0 1 2 0v1.011a1 1 0 0 1-1 1zM60.2 38.588a1 1 0 0 1-1-1v-1.01a1 1 0 0 1 2 0v1.011a1 1 0 0 1-1 .999zM63.57 40.706a1 1 0 0 1-1-1V38.7a1 1 0 0 1 2 0v1.011a1 1 0 0 1-1 .995zM60.2 43.527a1 1 0 0 1-1-1v-1.011a1 1 0 0 1 2 0v1.011a1 1 0 0 1-1 1zM63.57 45.645a1 1 0 0 1-1-1v-1.011a1 1 0 0 1 2 0v1.011a1 1 0 0 1-1 1zM60.2 48.466a1 1 0 0 1-1-1v-1.011a1 1 0 0 1 2 0v1.011a1 1 0 0 1-1 1zM63.57 50.583a1 1 0 0 1-1-1v-1.011a1 1 0 0 1 2 0v1.011a1 1 0 0 1-1 1zM60.2 53.4a1 1 0 0 1-1-1v-1.007a1 1 0 0 1 2 0V52.4a1 1 0 0 1-1 1zM63.57 55.522a1 1 0 0 1-1-1v-1.011a1 1 0 0 1 2 0v1.011a1 1 0 0 1-1 1zM60.2 58.343a1 1 0 0 1-1-1v-1.011a1 1 0 0 1 2 0v1.011a1 1 0 0 1-1 1zM63.57 60.46a1 1 0 0 1-1-1v-1.011a1 1 0 0 1 2 0v1.011a1 1 0 0 1-1 1zM70.231 64.066h-68a1 1 0 1 1 0-2h68a1 1 0 0 1 0 2z" fill="#ffffff" opacity="1" data-original="#ffffff" class=""></path></g></svg>