<svg xmlns="http://www.w3.org/2000/svg" version="1.1" width="60" height="60" x="0" y="0" viewBox="0 0 64 64" style="enable-background:new 0 0 512 512" xml:space="preserve" class=""><g><path d="M9.46 9.14h32.85c.54 0 .97-.43.97-.97s-.43-.97-.97-.97H9.46a.97.97 0 0 0 0 1.94zM9.46 15.34h32.85c.54 0 .97-.43.97-.97s-.43-.97-.97-.97H9.46a.97.97 0 0 0 0 1.94zM9.46 21.54h32.85c.54 0 .97-.43.97-.97s-.43-.97-.97-.97H9.46c-.54 0-.97.43-.97.97 0 .53.44.97.97.97zM9.46 27.74h32.85c.54 0 .97-.43.97-.97s-.43-.97-.97-.97H9.46c-.54 0-.97.43-.97.97 0 .53.44.97.97.97zM9.46 33.93h32.85c.54 0 .97-.43.97-.97s-.43-.97-.97-.97H9.46a.97.97 0 0 0 0 1.94zM9.46 40.13h24.12c.54 0 .97-.43.97-.97s-.43-.97-.97-.97H9.46a.97.97 0 0 0 0 1.94zM28.74 44.39H9.46c-.54 0-.97.43-.97.97s.43.97.97.97h19.27c.54 0 .97-.43.97-.97s-.43-.97-.96-.97z" fill="#ffffff" opacity="1" data-original="#ffffff"></path><path d="M61.22 26.6c.75-.75.81-1.92.14-2.59l-1.98-1.98c-.35-.35-.85-.52-1.38-.46-.45.05-.88.26-1.22.6l-2.63 2.63-2.72 2.72V.97c0-.54-.43-.97-.97-.97H3.14a.97.97 0 0 0-.97.97v55.67c0 4.06 3.3 7.36 7.37 7.36h41.78c4.06 0 7.36-3.3 7.36-7.36v-1.23c0-.54-.43-.97-.97-.97h-6.28V36.39zm-11.45 8.7L39.74 45.34l-1.7-1.7 16.81-16.79 1.69 1.69-6.77 6.76c.01 0 .01 0 0 0zm-12.84 9.98 1.17 1.17-2.34 1.17zm21.23-21.73 1.69 1.69-1.94 1.94-1.69-1.69zm-1.41 33.09c0 2.99-2.43 5.42-5.42 5.42H14.52c.08-.07.15-.14.23-.22a7.317 7.317 0 0 0 2.16-5.2v-.26h39.84zm-7.26-2.2H15.93c-.54 0-.97.43-.97.97v1.23c0 1.45-.56 2.81-1.59 3.83a5.408 5.408 0 0 1-3.85 1.59c-2.99 0-5.42-2.43-5.42-5.42V1.94h45.38v27.51l-13.5 13.51c-.07.07-.13.16-.18.25l-3.08 6.15c-.19.37-.11.82.18 1.12.19.19.43.28.69.28.15 0 .3-.03.43-.1l6.15-3.08c.09-.05.18-.11.25-.18l9.07-9.07z" fill="#ffffff" opacity="1" data-original="#ffffff"></path></g></svg>