<svg xmlns="http://www.w3.org/2000/svg" version="1.1" width="60" height="60" x="0" y="0" viewBox="0 0 512 512" style="enable-background:new 0 0 512 512" xml:space="preserve" class=""><g><path d="M127.5 31.5h-40C39.254 31.5 0 70.754 0 119v330c0 20.68 16.82 37.5 37.5 37.5h140c20.68 0 37.5-16.82 37.5-37.5V119c0-48.246-39.254-87.5-87.5-87.5ZM79.3 46.977C74.81 80.133 48.634 106.309 15.478 110.8c3.78-33.438 30.386-60.043 63.824-63.824ZM15 243c0-13.672 2.984-26.66 8.332-38.348l19.719 28.059A22.327 22.327 0 0 0 40 244v110c0 3.422.773 6.668 2.145 9.574l-22.887 32.574A22.373 22.373 0 0 1 15 383Zm47.5 133.5h90c3.43 0 6.68-.773 9.59-2.152l21.332 30.355a22.43 22.43 0 0 1-5.922.797h-140a22.43 22.43 0 0 1-5.922-.797l21.332-30.355a22.335 22.335 0 0 0 9.59 2.152ZM55 354V244c0-4.137 3.363-7.5 7.5-7.5h90c4.137 0 7.5 3.363 7.5 7.5v110c0 4.137-3.363 7.5-7.5 7.5h-90c-4.137 0-7.5-3.363-7.5-7.5Zm105.469-131.04a22.405 22.405 0 0 0-7.969-1.46h-90c-2.805 0-5.488.52-7.969 1.46l-22.976-32.698C48.277 166.246 76.082 150.5 107.5 150.5c31.418 0 59.223 15.746 75.945 39.762ZM200 449c0 12.406-10.094 22.5-22.5 22.5h-140C25.094 471.5 15 461.406 15 449v-36.02a37.304 37.304 0 0 0 22.5 7.52h140c8.438 0 16.227-2.8 22.5-7.52Zm0-66c0 4.906-1.582 9.445-4.258 13.145l-22.887-32.57A22.387 22.387 0 0 0 175 354V244c0-4.113-1.113-7.969-3.05-11.29l19.718-28.058C197.016 216.34 200 229.328 200 243Zm0-194.71c-18.746-31.575-53.191-52.79-92.5-52.79S33.746 156.715 15 188.29v-62.333C56.84 121.48 89.98 88.34 94.46 46.5h29.075c2.13 19.762 10.73 38.242 24.676 52.66 13.95 14.426 32.133 23.64 51.789 26.422ZM138.773 47.382c31.817 4.988 56.817 30.746 60.688 62.914-31.371-5.672-56.125-31.336-60.688-62.914ZM424.5 31.5h-40c-48.246 0-87.5 39.254-87.5 87.5v330c0 20.68 16.82 37.5 37.5 37.5h140c20.68 0 37.5-16.82 37.5-37.5V119c0-48.246-39.254-87.5-87.5-87.5Zm71.96 78.797c-31.37-5.672-56.124-31.336-60.687-62.914 31.817 4.988 56.817 30.746 60.688 62.914ZM376.3 46.977c-4.491 33.156-30.667 59.332-63.823 63.824 3.78-33.438 30.386-60.043 63.824-63.824ZM312 243c0-13.672 2.984-26.66 8.332-38.348l19.719 28.059A22.327 22.327 0 0 0 337 244v110c0 3.422.773 6.668 2.145 9.574l-22.887 32.574A22.373 22.373 0 0 1 312 383Zm47.5 133.5h90c3.43 0 6.68-.773 9.59-2.152l21.332 30.355a22.43 22.43 0 0 1-5.922.797h-140a22.43 22.43 0 0 1-5.922-.797l21.332-30.355a22.335 22.335 0 0 0 9.59 2.152ZM352 354V244c0-4.137 3.363-7.5 7.5-7.5h90c4.137 0 7.5 3.363 7.5 7.5v110c0 4.137-3.363 7.5-7.5 7.5h-90c-4.137 0-7.5-3.363-7.5-7.5Zm105.469-131.04a22.405 22.405 0 0 0-7.969-1.46h-90c-2.805 0-5.488.52-7.969 1.46l-22.976-32.698c16.722-24.016 44.527-39.762 75.945-39.762 31.418 0 59.223 15.746 75.945 39.762ZM497 449c0 12.406-10.094 22.5-22.5 22.5h-140c-12.406 0-22.5-10.094-22.5-22.5v-36.02a37.304 37.304 0 0 0 22.5 7.52h140c8.438 0 16.227-2.8 22.5-7.52Zm0-66c0 4.906-1.582 9.445-4.258 13.145l-22.887-32.57A22.387 22.387 0 0 0 472 354V244c0-4.113-1.113-7.969-3.05-11.29l19.718-28.058C494.016 216.34 497 229.328 497 243Zm0-194.71c-18.746-31.575-53.191-52.79-92.5-52.79s-73.754 21.215-92.5 52.79v-62.333c41.84-4.477 74.98-37.617 79.46-79.457h29.075c2.13 19.762 10.73 38.242 24.676 52.66 13.95 14.426 32.133 23.64 51.789 26.422ZM249 497h15v15h-15ZM249 30h15v452h-15ZM249 0h15v15h-15Zm0 0" style="stroke:none;fill-rule:nonzero;fill-opacity:1;" fill="#fff" data-original="#fff" class=""></path><path d="M29.5 441.5h15v15h-15ZM170.5 441.5h15v15h-15ZM328.5 441.5h15v15h-15ZM469.5 441.5h15v15h-15Zm0 0" style="stroke:none;fill-rule:nonzero;fill-opacity:1;" fill="#fff" data-original="#fff" class=""></path></g></svg>